<svg width="24" height="25" viewBox="0 0 24 25" fill="none" xmlns="http://www.w3.org/2000/svg">
<path d="M12 13.7835C11.4477 13.7835 11 13.3333 11 12.7779C11 12.2225 11.4477 11.7723 12 11.7723C12.5523 11.7723 13 12.2225 13 12.7779C13 13.3333 12.5523 13.7835 12 13.7835Z" fill="white"/>
<path d="M8 13.7835C7.44772 13.7835 7 13.3333 7 12.7779C7 12.2225 7.44772 11.7723 8 11.7723C8.55228 11.7723 9 12.2225 9 12.7779C9 13.3333 8.55228 13.7835 8 13.7835Z" fill="white"/>
<path d="M16 13.7835C15.4477 13.7835 15 13.3333 15 12.7779C15 12.2225 15.4477 11.7723 16 11.7723C16.5523 11.7723 17 12.2225 17 12.7779C17 13.3333 16.5523 13.7835 16 13.7835Z" fill="white"/>
<path d="M4.93 5.66813C6.57079 4.00734 8.73637 2.97427 11.0534 2.74703C13.3704 2.51978 15.6937 3.11261 17.6226 4.42329C19.5516 5.73398 20.9654 7.68039 21.6202 9.92697C22.2751 12.1735 22.13 14.5795 21.21 16.73C21.1141 16.9299 21.0827 17.1549 21.12 17.3736L22 21.6274C22.0339 21.7905 22.027 21.9595 21.9799 22.1192C21.9327 22.279 21.8469 22.4244 21.73 22.5425C21.6342 22.6382 21.5201 22.7133 21.3947 22.7635C21.2692 22.8136 21.135 22.8376 21 22.8342H20.8L16.52 21.9693C16.3025 21.943 16.0819 21.9742 15.88 22.0598C13.7415 22.985 11.349 23.1309 9.11501 22.4724C6.88101 21.8138 4.94549 20.3921 3.64214 18.4523C2.33878 16.5125 1.74927 14.1761 1.97524 11.8461C2.20122 9.51602 3.2285 7.33826 4.88 5.68824L4.93 5.66813ZM4.1 14.0752C4.29552 15.2759 4.7593 16.4163 5.45645 17.4107C6.1536 18.4051 7.06596 19.2276 8.12485 19.8161C9.18375 20.4047 10.3616 20.7441 11.5698 20.8087C12.778 20.8734 13.985 20.6616 15.1 20.1894C15.4955 20.0202 15.9203 19.9314 16.35 19.9279C16.5377 19.9292 16.725 19.946 16.91 19.9782L19.73 20.5514L19.16 17.7155C19.0465 17.1014 19.1197 16.4671 19.37 15.8953C19.8396 14.774 20.0502 13.5602 19.9859 12.3453C19.9216 11.1303 19.5841 9.94581 18.9989 8.88095C18.4136 7.8161 17.5957 6.89861 16.6069 6.19754C15.6181 5.49647 14.484 5.03007 13.29 4.83346C12.0367 4.62662 10.7525 4.72281 9.54353 5.11409C8.33455 5.50536 7.23559 6.18048 6.33754 7.08358C5.43949 7.98669 4.76815 9.09183 4.37906 10.3076C3.98998 11.5234 3.89432 12.8148 4.1 14.0752Z" fill="white"/>
</svg>
