<svg width="32" height="33" viewBox="0 0 32 33" fill="none" xmlns="http://www.w3.org/2000/svg">
<ellipse cx="16" cy="16.2519" rx="16" ry="16.09" fill="#AAC4D9"/>
<path d="M9.39568 9.06891C8.87472 9.06891 8.3751 9.27702 8.00672 9.64747C7.63835 10.0179 7.4314 10.5204 7.4314 11.0442V21.4597C7.4314 21.9836 7.63835 22.486 8.00672 22.8564C8.3751 23.2269 8.87472 23.435 9.39568 23.435H15.9035C15.4974 22.66 15.2853 21.797 15.2857 20.9209C15.2857 19.865 15.5878 18.8795 16.1107 18.0477H13.1428C12.7639 18.0477 12.4006 18.1991 12.1327 18.4685C11.8648 18.7379 11.7143 19.1033 11.7143 19.4843V22.3575H9.39568C8.90283 22.3575 8.50283 21.9553 8.50283 21.4597V11.0442C8.50283 10.5486 8.90283 10.1464 9.39568 10.1464H22.6071C23.1 10.1464 23.5 10.5486 23.5 11.0442V16.3633C23.8957 16.6147 24.2557 16.9157 24.5714 17.259V11.0442C24.5714 10.5204 24.3644 10.0179 23.9961 9.64747C23.6277 9.27702 23.1281 9.06891 22.6071 9.06891H9.39568ZM18.5 14.4562C18.5 15.123 18.2366 15.7624 17.7677 16.2339C17.2989 16.7054 16.663 16.9703 16 16.9703C15.3369 16.9703 14.701 16.7054 14.2322 16.2339C13.7634 15.7624 13.5 15.123 13.5 14.4562C13.5 13.7894 13.7634 13.15 14.2322 12.6785C14.701 12.207 15.3369 11.9421 16 11.9421C16.663 11.9421 17.2989 12.207 17.7677 12.6785C18.2366 13.15 18.5 13.7894 18.5 14.4562ZM25.2857 20.9209C25.2857 22.1592 24.7965 23.3468 23.9258 24.2224C23.0551 25.098 21.8742 25.5899 20.6428 25.5899C19.4115 25.5899 18.2305 25.098 17.3598 24.2224C16.4891 23.3468 16 22.1592 16 20.9209C16 19.6826 16.4891 18.4951 17.3598 17.6195C18.2305 16.7439 19.4115 16.252 20.6428 16.252C21.8742 16.252 23.0551 16.7439 23.9258 17.6195C24.7965 18.4951 25.2857 19.6826 25.2857 20.9209ZM20.6428 18.0477C20.5481 18.0477 20.4573 18.0856 20.3903 18.1529C20.3233 18.2203 20.2857 18.3116 20.2857 18.4069V20.9209C20.2857 21.0162 20.3233 21.1075 20.3903 21.1749C20.4573 21.2422 20.5481 21.2801 20.6428 21.2801H22.7857C22.8804 21.2801 22.9712 21.2422 23.0382 21.1749C23.1052 21.1075 23.1428 21.0162 23.1428 20.9209C23.1428 20.8257 23.1052 20.7343 23.0382 20.667C22.9712 20.5996 22.8804 20.5618 22.7857 20.5618H21V18.4069C21 18.3116 20.9623 18.2203 20.8954 18.1529C20.8284 18.0856 20.7375 18.0477 20.6428 18.0477Z" fill="white"/>
</svg>
