<svg width="32" height="33" viewBox="0 0 32 33" fill="none" xmlns="http://www.w3.org/2000/svg">
<ellipse cx="16" cy="16.183" rx="16" ry="16.09" fill="#AAC4D9"/>
<g clip-path="url(#clip0_22_3393)">
<path d="M19.7307 16.6255C21.44 16.6255 22.8329 15.0944 22.8329 13.2315C22.8329 11.3898 21.4471 9.93091 19.7307 9.93091C18.0286 9.93091 16.6282 11.4113 16.6282 13.2459C16.6354 15.1016 18.0286 16.6255 19.7307 16.6255ZM11.4579 16.7843C12.9371 16.7843 14.1507 15.4482 14.1507 13.809C14.1507 12.2058 12.9514 10.9132 11.4579 10.9132C9.97857 10.9132 8.75786 12.2277 8.765 13.8234C8.77214 15.4557 9.97857 16.7843 11.4579 16.7843ZM19.7307 15.5351C18.6821 15.5351 17.7843 14.5241 17.7843 13.2459C17.7843 11.9889 18.6679 11.0217 19.7307 11.0217C20.8007 11.0217 21.6768 11.9748 21.6768 13.2312C21.6768 14.5097 20.7936 15.5351 19.7307 15.5351ZM11.4579 15.7082C10.5818 15.7082 9.835 14.8635 9.835 13.8234C9.835 12.8052 10.5743 11.9892 11.4579 11.9892C12.3625 11.9892 13.0879 12.7908 13.0879 13.809C13.0879 14.8635 12.3411 15.7082 11.4579 15.7082ZM7.465 23.4067H13.1025C12.7575 23.2116 12.4918 22.7781 12.5421 22.3378H7.28571C7.14214 22.3378 7.07036 22.2804 7.07036 22.1428C7.07036 20.3521 9.1025 18.6766 11.4511 18.6766C12.3557 18.6766 13.1671 18.8932 13.8639 19.3048C14.0949 19.0104 14.3684 18.7524 14.6754 18.5394C13.7489 17.9253 12.6361 17.6078 11.4511 17.6078C8.44179 17.6078 6 19.8029 6 22.2078C6 23.0094 6.48821 23.4067 7.465 23.4067ZM15.2207 23.4067H24.2407C25.4325 23.4067 26 23.0457 26 22.2513C26 20.3593 23.6229 17.6218 19.7307 17.6218C15.8311 17.6218 13.4543 20.3593 13.4543 22.2513C13.4543 23.0457 14.0214 23.4067 15.2207 23.4067ZM14.8761 22.3163C14.6893 22.3163 14.6104 22.266 14.6104 22.1141C14.6104 20.9296 16.4343 18.7129 19.7307 18.7129C23.02 18.7129 24.8436 20.9296 24.8436 22.1141C24.8436 22.2656 24.7721 22.3163 24.585 22.3163H14.8761Z" fill="white" stroke="white" stroke-width="0.2"/>
</g>
<defs>
<clipPath id="clip0_22_3393">
<rect width="20" height="20.1125" fill="white" transform="translate(6 6.12677)"/>
</clipPath>
</defs>
</svg>
