<svg width="32" height="33" viewBox="0 0 32 33" fill="none" xmlns="http://www.w3.org/2000/svg">
<ellipse cx="16" cy="16.5093" rx="16" ry="16.09" fill="#AAC4D9"/>
<path d="M18.7602 14.8594L15.0102 12.3453C14.9395 12.2979 14.8574 12.2707 14.7726 12.2666C14.6878 12.2625 14.6034 12.2816 14.5286 12.322C14.4537 12.3623 14.3912 12.4223 14.3476 12.4956C14.3041 12.5689 14.2811 12.6527 14.2812 12.7381V17.7663C14.2811 17.8517 14.3041 17.9355 14.3476 18.0088C14.3912 18.0821 14.4537 18.1421 14.5286 18.1825C14.6034 18.2228 14.6878 18.2419 14.7726 18.2378C14.8574 18.2337 14.9395 18.2065 15.0102 18.1591L18.7602 15.645C18.8246 15.602 18.8775 15.5437 18.9141 15.4751C18.9507 15.4066 18.9698 15.33 18.9698 15.2522C18.9698 15.1744 18.9507 15.0978 18.9141 15.0293C18.8775 14.9608 18.8246 14.9024 18.7602 14.8594ZM15.2188 16.8856V13.6188L17.6547 15.2522L15.2188 16.8856ZM22.875 9.75269H9.125C8.83492 9.75269 8.55672 9.86857 8.3516 10.0748C8.14648 10.2811 8.03125 10.5609 8.03125 10.8526V19.6518C8.03125 19.9435 8.14648 20.2233 8.3516 20.4296C8.55672 20.6358 8.83492 20.7517 9.125 20.7517H22.875C23.1651 20.7517 23.4433 20.6358 23.6484 20.4296C23.8535 20.2233 23.9688 19.9435 23.9688 19.6518V10.8526C23.9688 10.5609 23.8535 10.2811 23.6484 10.0748C23.4433 9.86857 23.1651 9.75269 22.875 9.75269ZM23.0312 19.6518C23.0312 19.6935 23.0148 19.7335 22.9855 19.7629C22.9562 19.7924 22.9164 19.8089 22.875 19.8089H9.125C9.08356 19.8089 9.04382 19.7924 9.01451 19.7629C8.98521 19.7335 8.96875 19.6935 8.96875 19.6518V10.8526C8.96875 10.8109 8.98521 10.7709 9.01451 10.7415C9.04382 10.712 9.08356 10.6955 9.125 10.6955H22.875C22.9164 10.6955 22.9562 10.712 22.9855 10.7415C23.0148 10.7709 23.0312 10.8109 23.0312 10.8526V19.6518ZM23.9688 22.7944C23.9688 22.9194 23.9194 23.0393 23.8315 23.1277C23.7435 23.2161 23.6243 23.2658 23.5 23.2658H8.5C8.37568 23.2658 8.25645 23.2161 8.16854 23.1277C8.08064 23.0393 8.03125 22.9194 8.03125 22.7944C8.03125 22.6694 8.08064 22.5495 8.16854 22.4611C8.25645 22.3727 8.37568 22.323 8.5 22.323H23.5C23.6243 22.323 23.7435 22.3727 23.8315 22.4611C23.9194 22.5495 23.9688 22.6694 23.9688 22.7944Z" fill="white" stroke="white" stroke-width="0.4"/>
</svg>
