<svg width="32" height="33" viewBox="0 0 32 33" fill="none" xmlns="http://www.w3.org/2000/svg">
<ellipse cx="16" cy="16.8357" rx="16" ry="16.09" fill="#AAC4D9"/>
<g clip-path="url(#clip0_22_3409)">
<path d="M24.3291 11.1789C24.3291 10.6789 24.1316 10.1993 23.78 9.84566C23.4283 9.49205 22.9514 9.2934 22.4541 9.2934H9.54163C9.04435 9.2934 8.56743 9.49205 8.2158 9.84566C7.86417 10.1993 7.66663 10.6789 7.66663 11.1789V20.8204C7.66663 21.3205 7.86417 21.8001 8.2158 22.1537C8.56743 22.5073 9.04435 22.7059 9.54163 22.7059H15.3125C15.2154 22.2938 15.1664 21.8716 15.1666 21.4481H13.0825L13.0833 19.1402L13.0891 19.0924C13.0998 19.0464 13.1256 19.0055 13.1624 18.9761C13.1992 18.9467 13.2447 18.9307 13.2916 18.9306H15.7766C16.015 18.4708 16.3175 18.0475 16.675 17.6736H13.2916L13.1716 17.6786C12.8069 17.7089 12.4668 17.876 12.2189 18.1468C11.9709 18.4175 11.8333 18.7721 11.8333 19.1402L11.8325 21.4481H9.54163C9.37587 21.4481 9.21689 21.3818 9.09968 21.264C8.98247 21.1461 8.91663 20.9862 8.91663 20.8195V11.1789C8.91663 11.0123 8.98247 10.8524 9.09968 10.7345C9.21689 10.6166 9.37587 10.5504 9.54163 10.5504H22.4541C22.6199 10.5504 22.7789 10.6166 22.8961 10.7345C23.0133 10.8524 23.0791 11.0123 23.0791 11.1789V16.6093C23.5363 16.8483 23.9572 17.1517 24.3291 17.5102V11.1789ZM18.5 14.3215C18.5 13.6548 18.2366 13.0153 17.7677 12.5438C17.2989 12.0723 16.663 11.8075 16 11.8075C15.3369 11.8075 14.701 12.0723 14.2322 12.5438C13.7634 13.0153 13.5 13.6548 13.5 14.3215C13.5 14.9883 13.7634 15.6278 14.2322 16.0992C14.701 16.5707 15.3369 16.8356 16 16.8356C16.663 16.8356 17.2989 16.5707 17.7677 16.0992C18.2366 15.6278 18.5 14.9883 18.5 14.3215ZM14.75 14.3215C14.75 13.9881 14.8817 13.6684 15.1161 13.4327C15.3505 13.1969 15.6684 13.0645 16 13.0645C16.3315 13.0645 16.6494 13.1969 16.8838 13.4327C17.1183 13.6684 17.25 13.9881 17.25 14.3215C17.25 14.6549 17.1183 14.9746 16.8838 15.2104C16.6494 15.4461 16.3315 15.5786 16 15.5786C15.6684 15.5786 15.3505 15.4461 15.1161 15.2104C14.8817 14.9746 14.75 14.6549 14.75 14.3215ZM25.1666 21.4447C25.1666 20.2223 24.6837 19.0499 23.8242 18.1856C22.9647 17.3212 21.7989 16.8356 20.5833 16.8356C19.3677 16.8356 18.2019 17.3212 17.3424 18.1856C16.4828 19.0499 16 20.2223 16 21.4447C16 22.6671 16.4828 23.8395 17.3424 24.7039C18.2019 25.5682 19.3677 26.0538 20.5833 26.0538C21.7989 26.0538 22.9647 25.5682 23.8242 24.7039C24.6837 23.8395 25.1666 22.6671 25.1666 21.4447ZM19.3458 18.9306C19.4312 18.9331 19.5138 18.962 19.5824 19.0132C19.6509 19.0645 19.7022 19.1357 19.7291 19.2172L20.6066 21.8654L21.4433 19.6212C21.4718 19.5449 21.5218 19.4787 21.5872 19.4305C21.6526 19.3824 21.7305 19.3545 21.8115 19.3502C21.8924 19.346 21.9728 19.3655 22.0428 19.4065C22.1129 19.4475 22.1695 19.5081 22.2058 19.581L22.925 21.0257H23.5C23.6105 21.0257 23.7164 21.0698 23.7946 21.1484C23.8727 21.227 23.9166 21.3336 23.9166 21.4447C23.9166 21.5558 23.8727 21.6624 23.7946 21.741C23.7164 21.8196 23.6105 21.8637 23.5 21.8637H22.6666C22.5893 21.8637 22.5135 21.8421 22.4477 21.8012C22.3819 21.7604 22.3288 21.7019 22.2941 21.6324L21.8883 20.8154L20.9733 23.2682C20.9429 23.3492 20.8884 23.4187 20.8172 23.4672C20.7459 23.5157 20.6615 23.5409 20.5755 23.5392C20.4895 23.5376 20.4061 23.5092 20.3368 23.458C20.2674 23.4068 20.2156 23.3352 20.1883 23.2532L19.2975 20.5673L18.8866 21.6006C18.8557 21.6783 18.8023 21.7448 18.7334 21.7917C18.6645 21.8386 18.5832 21.8637 18.5 21.8637H17.6666C17.5561 21.8637 17.4501 21.8196 17.372 21.741C17.2939 21.6624 17.25 21.5558 17.25 21.4447C17.25 21.3336 17.2939 21.227 17.372 21.1484C17.4501 21.0698 17.5561 21.0257 17.6666 21.0257H18.2183L18.9466 19.1938C18.9783 19.1141 19.0336 19.0461 19.105 18.999C19.1764 18.952 19.2605 18.9281 19.3458 18.9306Z" fill="white"/>
</g>
<defs>
<clipPath id="clip0_22_3409">
<rect width="20" height="20.1125" fill="white" transform="translate(6 6.77936)"/>
</clipPath>
</defs>
</svg>
