<svg width="84" height="84" viewBox="0 0 84 84" fill="none" xmlns="http://www.w3.org/2000/svg">
<circle cx="42" cy="42" r="42" fill="black"/>
<path d="M48.6659 37.555L39.7768 46.445L35.3322 42M44.768 23.0177L47.4814 25.3291C48.1659 25.9114 49.0148 26.2625 49.9081 26.3359L53.4638 26.6203C54.4744 26.7011 55.4233 27.139 56.1404 27.8558C56.8575 28.5725 57.2959 29.5213 57.3772 30.5319L57.6594 34.0879C57.7328 34.9836 58.0861 35.8348 58.6683 36.5171L60.9795 39.2286C61.6382 40.0009 62 40.9827 62 41.9978C62 43.0129 61.6382 43.9947 60.9795 44.767L58.6683 47.4807C58.0861 48.1652 57.7328 49.0142 57.6616 49.9099L57.3772 53.4658C57.2965 54.4766 56.8586 55.4255 56.1419 56.1427C55.4252 56.8599 54.4766 57.2984 53.466 57.3797L49.9104 57.6641C49.0152 57.735 48.1652 58.0866 47.4814 58.6687L44.768 60.9801C43.9956 61.6384 43.0139 62 41.9991 62C40.9842 62 40.0025 61.6384 39.2301 60.9801L36.5189 58.6687C35.8345 58.0861 34.9837 57.7346 34.0878 57.6641L30.5321 57.3797C29.5212 57.2983 28.5723 56.8595 27.8556 56.1419C27.1388 55.4242 26.7011 54.4747 26.6209 53.4636L26.3365 49.9099C26.2645 49.0151 25.9122 48.1658 25.3298 47.4829L23.0186 44.767C22.3611 43.995 22 43.0141 22 42C22 40.9859 22.3611 40.005 23.0186 39.233L25.3298 36.5171C25.9142 35.8326 26.2631 34.9836 26.3342 34.0879L26.6187 30.5342C26.7005 29.5227 27.1396 28.5734 27.8575 27.8563C28.5754 27.1391 29.5251 26.701 30.5366 26.6203L34.0878 26.3381C34.9832 26.2666 35.8332 25.9142 36.5167 25.3313L39.2301 23.0199C40.0025 22.3616 40.9842 22 41.9991 22C43.0139 22 43.9956 22.3594 44.768 23.0177Z" stroke="#287EFC" stroke-width="3" stroke-linecap="round" stroke-linejoin="round"/>
</svg>
