<svg width="24" height="24" viewBox="0 0 24 24" fill="none" xmlns="http://www.w3.org/2000/svg">
<path d="M19.281 5.78063C19.3507 5.71095 19.406 5.62823 19.4437 5.53718C19.4814 5.44614 19.5008 5.34856 19.5008 5.25001C19.5008 5.15146 19.4814 5.05388 19.4437 4.96284C19.406 4.87179 19.3507 4.78907 19.281 4.71938C19.2114 4.6497 19.1286 4.59443 19.0376 4.55672C18.9465 4.519 18.849 4.49959 18.7504 4.49959C18.6519 4.49959 18.5543 4.519 18.4632 4.55672C18.3722 4.59443 18.2895 4.6497 18.2198 4.71938L12.0004 10.9397L5.78104 4.71938C5.64031 4.57865 5.44944 4.49959 5.25042 4.49959C5.05139 4.49959 4.86052 4.57865 4.71979 4.71938C4.57906 4.86012 4.5 5.05099 4.5 5.25001C4.5 5.44903 4.57906 5.6399 4.71979 5.78063L10.9401 12L4.71979 18.2194C4.57906 18.3601 4.5 18.551 4.5 18.75C4.5 18.949 4.57906 19.1399 4.71979 19.2806C4.86052 19.4214 5.05139 19.5004 5.25042 19.5004C5.44944 19.5004 5.64031 19.4214 5.78104 19.2806L12.0004 13.0603L18.2198 19.2806C18.3605 19.4214 18.5514 19.5004 18.7504 19.5004C18.9494 19.5004 19.1403 19.4214 19.281 19.2806C19.4218 19.1399 19.5008 18.949 19.5008 18.75C19.5008 18.551 19.4218 18.3601 19.281 18.2194L13.0607 12L19.281 5.78063Z" fill="black"/>
</svg>
