<svg width="84" height="84" viewBox="0 0 84 84" fill="none" xmlns="http://www.w3.org/2000/svg">
<circle cx="42" cy="42" r="42" fill="black"/>
<path d="M62.6727 31.5473C62.4289 30.6292 61.9482 29.7913 61.2786 29.1174C60.6091 28.4436 59.7742 27.9575 58.8577 27.7078C55.4928 26.8 42 26.8 42 26.8C42 26.8 28.5073 26.8 25.1424 27.7078C24.2259 27.9575 23.391 28.4436 22.7215 29.1174C22.0519 29.7913 21.5712 30.6292 21.3274 31.5473C20.4255 34.9337 20.4255 42.0001 20.4255 42.0001C20.4255 42.0001 20.4255 49.0665 21.3274 52.4536C21.5712 53.3717 22.0519 54.2097 22.7215 54.8835C23.391 55.5574 24.2259 56.0435 25.1424 56.2931C28.5073 57.2002 42 57.2002 42 57.2002C42 57.2002 55.4928 57.2002 58.8577 56.2931C59.7742 56.0435 60.6091 55.5574 61.2786 54.8835C61.9482 54.2097 62.4289 53.3717 62.6727 52.4536C63.5745 49.0665 63.5745 42.0001 63.5745 42.0001C63.5745 42.0001 63.5745 34.9337 62.6727 31.5473Z" stroke="#287EFC" stroke-width="3" stroke-miterlimit="10"/>
<path d="M37.5874 48.4155L48.8649 42.0002L37.5874 35.585V48.4155Z" fill="#287EFC"/>
</svg>
